<svg width="148" height="38" viewBox="0 0 148 38" fill="none" xmlns="http://www.w3.org/2000/svg">
<mask id="mask0_673_2670" style="mask-type:luminance" maskUnits="userSpaceOnUse" x="0" y="0" width="148" height="38">
<path d="M147.254 0H0V37.27H147.254V0Z" fill="white"/>
</mask>
<g mask="url(#mask0_673_2670)">
<path d="M78.0955 6.63505C78.8837 6.59729 81.7042 6.54111 81.8221 6.77518C82.6003 8.31279 84.6946 14.0462 85.2383 15.5004L88.4177 23.9165L90.0816 28.33C90.3871 29.1393 90.8522 30.2303 91.0221 31.0403C90.2483 31.0956 87.6434 31.11 86.9293 30.9732C86.3016 30.1348 85.1425 26.4849 84.6781 25.3291C83.9511 25.2159 82.4297 25.2619 81.651 25.2674C79.5818 25.2658 77.1723 25.1998 75.136 25.3608C74.6456 26.0784 74.5767 26.61 74.284 27.3524C73.8834 28.3686 73.3435 30.1511 72.8216 31.065C72.1206 31.0702 69.112 31.1816 68.7587 30.9044C68.7095 30.6508 70.6383 25.8391 70.8613 25.2409L77.3802 7.93492C77.5239 7.54239 77.7165 6.80886 78.0955 6.63505ZM76.1032 21.8288C77.3341 21.8615 78.6002 21.8416 79.8348 21.8327C80.976 21.8414 82.5275 21.8989 83.6269 21.7845C83.1394 20.6696 80.2231 11.9987 79.9103 11.7661C78.7742 14.1518 77.9288 16.7527 77.0459 19.2421C76.7338 20.1232 76.3793 20.929 76.1032 21.8288Z" fill="white"/>
<path d="M120.001 6.64043C120.339 6.62437 120.891 6.5732 121.183 6.71485C121.487 7.29888 121.209 15.7046 121.335 17.0966C124.309 17.1472 127.296 17.0712 130.272 17.1227C131.137 17.1377 132.158 17.171 133.005 17.0637C133.107 13.6515 132.913 10.0934 133.066 6.69525C133.887 6.61512 136.244 6.61793 137.082 6.67268C137.167 7.41764 137.122 9.11414 137.122 9.91942L137.121 16.1009L137.124 25.626C137.125 27.3425 137.177 29.3542 137.092 31.0529C136.251 31.1059 134.826 31.0642 133.94 31.0656C133.673 31.069 133.329 31.0164 133.057 30.9823C132.961 29.872 133.16 21.0627 132.864 20.731C132.225 20.5655 129.484 20.5977 128.62 20.6125C126.398 20.6506 123.556 20.4672 121.373 20.6325C121.26 21.5374 121.308 23.2226 121.309 24.1872C121.327 26.4772 121.321 28.7675 121.29 31.0575C120.538 31.1015 117.914 31.0932 117.21 30.983C117.071 30.0041 117.133 28.32 117.143 27.2905C117.152 25.8591 117.15 24.4276 117.138 22.9961C117.132 17.6331 117.061 12.0371 117.168 6.69304C118.013 6.62462 119.123 6.65264 120.001 6.64043Z" fill="white"/>
<path d="M97.7197 6.62676C100.744 6.55554 103.822 6.61252 106.85 6.62874C107.616 6.63286 108.395 6.6298 109.159 6.67611C109.741 7.02935 112.763 9.96277 113.231 10.5458C113.301 11.6088 113.334 12.6247 113.194 13.684C113.166 13.6853 113.138 13.6862 113.11 13.687C112.549 13.7033 109.811 13.7632 109.252 13.5814C109.058 13.5181 109.071 12.2333 109.063 11.8746C108.766 11.5654 107.506 10.436 107.17 10.1552C106.026 10.0323 104.532 10.1089 103.348 10.0894C102.287 10.0718 101.118 10.0757 100.061 10.1185C99.8249 10.1281 99.3835 10.211 99.2117 10.3453C98.8938 10.6024 97.3824 11.8859 97.3824 12.214C97.3831 16.6401 97.2193 21.2199 97.3644 25.6318C97.5522 25.8464 99.2161 27.3464 99.4505 27.501C100.367 27.6407 104.421 27.5859 105.602 27.5866C107.189 27.6163 107.166 27.5769 108.274 26.5184C109.304 25.5338 109.143 25.3483 109.101 24.0082C110.193 23.9293 112.123 23.93 113.237 23.9551C113.283 24.9968 113.376 26.1283 113.213 27.1529C112.487 27.9115 109.989 30.5222 109.168 30.9402C108.757 31.15 98.1986 31.168 97.5183 30.9777C96.7347 30.7582 93.6342 27.7049 93.2006 26.9691C93.1244 26.2338 93.1734 25.0021 93.1771 24.2291L93.195 19.2812L93.187 13.891C93.1834 12.874 93.138 11.6169 93.2193 10.6302C93.6551 9.89539 94.9967 8.82505 95.6094 8.17061C96.0968 7.64923 96.9963 6.73574 97.7197 6.62676Z" fill="white"/>
<path d="M52.1662 6.63775C52.6047 6.58575 54.2884 6.60391 54.7861 6.60271L60.3301 6.61154C62.6553 6.60729 64.9804 6.62033 67.3052 6.65063C68.3534 6.65629 69.7612 6.58971 70.7566 6.67366C70.8828 7.52263 70.8209 9.18207 70.808 10.0706C68.5451 10.2273 65.5254 10.0196 63.1229 10.1097C63.1702 11.608 63.1244 13.3477 63.1236 14.8679L63.1193 24.3058C63.1215 26.172 63.226 29.2555 63.0691 31.042C62.3877 31.0999 59.6807 31.1027 59.0317 31.0077C58.9016 28.2706 58.9771 25.1676 58.9763 22.4015L58.9657 10.099C56.5132 10.0361 53.7619 10.1961 51.3529 10.0606C51.264 8.94303 51.248 7.82132 51.3043 6.70189L52.1662 6.63775Z" fill="white"/>
<path d="M142.596 6.68131C143.466 6.61848 145.797 6.62053 146.654 6.68805C146.779 8.14505 146.723 10.183 146.719 11.6879L146.721 19.3167L146.724 26.6819C146.728 27.9889 146.793 29.759 146.687 31.0227C146.12 31.1131 143.173 31.075 142.588 31.0034C142.471 30.3539 142.523 28.5562 142.525 27.8129L142.54 21.8718V12.162C142.54 10.5493 142.478 8.25919 142.596 6.68131Z" fill="white"/>
<path d="M0 0.178127C0.817671 0.0367071 3.1166 0.114906 4.05994 0.117193L12.1599 0.123342L29.6798 0.121474C32.5486 0.120519 35.8219 0.0442099 38.6553 0.124849C38.6813 1.65983 38.7121 3.47838 38.6534 5.01163C37.3453 5.38196 35.8011 5.68262 34.4575 6.00128L27.6122 7.67404L7.6624 12.6035C6.6906 12.8454 1.09392 14.1185 0.550587 14.4488C3.24773 14.3161 5.78623 13.6866 8.42802 13.3369C12.9182 12.7425 17.3698 11.8885 21.8527 11.2971C21.3507 14.0789 20.7377 16.6258 20.1589 19.3635C19.1852 24.1056 18.1602 28.8382 17.0842 33.5604C16.936 34.2082 16.4806 36.8864 16.2835 37.2671H0V0.178127Z" fill="#BC0000"/>
<path d="M16.7598 37.2642C16.9445 36.4564 17.5123 35.238 17.821 34.379C18.7587 31.6856 19.7503 29.0095 20.7954 26.3521C22.6556 21.4891 24.3119 16.5533 26.1769 11.694C26.2626 11.4709 26.5542 10.6837 26.7481 10.5621C26.9158 10.4569 37.3491 8.8653 38.6764 8.69238L38.6788 28.3398L38.6798 34.0306C38.679 34.8451 38.7164 36.5102 38.6109 37.2642H16.7598Z" fill="#BC0000"/>
</g>
</svg>
