<svg width="148" height="38" viewBox="0 0 148 38" fill="none" xmlns="http://www.w3.org/2000/svg">
<mask id="mask0_9626_6136" style="mask-type:luminance" maskUnits="userSpaceOnUse" x="0" y="0" width="148" height="38">
<path d="M147.254 0H0V37.27H147.254V0Z" fill="white"/>
</mask>
<g mask="url(#mask0_9626_6136)">
<path d="M78.096 6.63407C78.8841 6.59632 81.7047 6.54014 81.8226 6.7742C82.6008 8.31182 84.6951 14.0452 85.2388 15.4995L88.4182 23.9155L90.082 28.329C90.3875 29.1384 90.8527 30.2293 91.0225 31.0394C90.2487 31.0946 87.6439 31.1091 86.9298 30.9722C86.3021 30.1338 85.143 26.4839 84.6786 25.3281C83.9516 25.2149 82.4302 25.2609 81.6515 25.2664C79.5822 25.2648 77.1728 25.1988 75.1365 25.3598C74.6461 26.0774 74.5772 26.6091 74.2845 27.3515C73.8839 28.3677 73.344 30.1502 72.8221 31.064C72.1211 31.0693 69.1125 31.1806 68.7592 30.9034C68.71 30.6499 70.6388 25.8381 70.8618 25.24L77.3807 7.93394C77.5244 7.54141 77.717 6.80788 78.096 6.63407ZM76.1037 21.8278C77.3346 21.8605 78.6007 21.8407 79.8353 21.8317C80.9765 21.8405 82.528 21.8979 83.6274 21.7835C83.1399 20.6687 80.2236 11.9977 79.9108 11.7651C78.7747 14.1509 77.9293 16.7517 77.0463 19.2412C76.7343 20.1222 76.3798 20.928 76.1037 21.8278Z" fill="white"/>
<path d="M120.001 6.6414C120.34 6.62534 120.891 6.57418 121.184 6.71583C121.488 7.29986 121.21 15.7055 121.336 17.0976C124.309 17.1482 127.297 17.0721 130.273 17.1236C131.137 17.1386 132.159 17.172 133.005 17.0647C133.107 13.6525 132.913 10.0944 133.066 6.69623C133.887 6.6161 136.244 6.6189 137.082 6.67366C137.168 7.41862 137.122 9.11512 137.122 9.9204L137.122 16.1019L137.124 25.627C137.125 27.3435 137.178 29.3551 137.093 31.0539C136.252 31.1068 134.826 31.0652 133.941 31.0666C133.674 31.07 133.33 31.0173 133.058 30.9833C132.962 29.873 133.16 21.0637 132.865 20.732C132.225 20.5665 129.484 20.5987 128.621 20.6135C126.399 20.6515 123.557 20.4682 121.374 20.6335C121.26 21.5384 121.308 23.2235 121.31 24.1882C121.328 26.4782 121.321 28.7685 121.29 31.0585C120.539 31.1025 117.914 31.0942 117.211 30.984C117.071 30.0051 117.134 28.321 117.144 27.2915C117.152 25.86 117.151 24.4286 117.138 22.997C117.133 17.6341 117.061 12.0381 117.169 6.69402C118.013 6.6256 119.123 6.65362 120.001 6.6414Z" fill="white"/>
<path d="M97.7197 6.62676C100.744 6.55554 103.822 6.61252 106.85 6.62874C107.616 6.63286 108.395 6.6298 109.159 6.67611C109.741 7.02935 112.763 9.96277 113.231 10.5458C113.301 11.6088 113.334 12.6247 113.194 13.684C113.166 13.6853 113.138 13.6862 113.11 13.687C112.549 13.7033 109.811 13.7632 109.252 13.5814C109.058 13.5181 109.071 12.2333 109.063 11.8746C108.766 11.5654 107.506 10.436 107.17 10.1552C106.026 10.0323 104.532 10.1089 103.348 10.0894C102.287 10.0718 101.118 10.0757 100.061 10.1185C99.8249 10.1281 99.3835 10.211 99.2117 10.3453C98.8938 10.6024 97.3824 11.8859 97.3824 12.214C97.3831 16.6401 97.2193 21.2199 97.3644 25.6318C97.5522 25.8464 99.2161 27.3464 99.4505 27.501C100.367 27.6407 104.421 27.5859 105.602 27.5866C107.189 27.6163 107.166 27.5769 108.274 26.5184C109.304 25.5338 109.143 25.3483 109.101 24.0082C110.193 23.9293 112.123 23.93 113.237 23.9551C113.283 24.9968 113.376 26.1282 113.213 27.1529C112.487 27.9115 109.989 30.5222 109.168 30.9402C108.757 31.15 98.1986 31.168 97.5183 30.9777C96.7347 30.7582 93.6342 27.7049 93.2006 26.9691C93.1244 26.2338 93.1734 25.0021 93.1771 24.2291L93.195 19.2812L93.187 13.891C93.1834 12.874 93.138 11.6169 93.2193 10.6302C93.6551 9.89539 94.9967 8.82505 95.6094 8.17061C96.0968 7.64923 96.9963 6.73574 97.7197 6.62676Z" fill="white"/>
<path d="M52.1672 6.63677C52.6056 6.58478 54.2894 6.60293 54.787 6.60173L60.331 6.61057C62.6563 6.60631 64.9814 6.61936 67.3062 6.64966C68.3544 6.65531 69.7622 6.58874 70.7576 6.67268C70.8837 7.52166 70.8219 9.18109 70.809 10.0696C68.5461 10.2263 65.5263 10.0186 63.1239 10.1087C63.1712 11.607 63.1253 13.3467 63.1246 14.8669L63.1203 24.3048C63.1224 26.171 63.227 29.2546 63.07 31.041C62.3887 31.099 59.6817 31.1017 59.0326 31.0067C58.9026 28.2697 58.978 25.1666 58.9773 22.4005L58.9666 10.098C56.5142 10.0351 53.7628 10.1951 51.3538 10.0596C51.265 8.94206 51.249 7.82035 51.3053 6.70091L52.1672 6.63677Z" fill="white"/>
<path d="M142.596 6.68033C143.466 6.6175 145.797 6.61955 146.654 6.68707C146.779 8.14408 146.723 10.182 146.719 11.6869L146.721 19.3157L146.724 26.681C146.728 27.9879 146.793 29.758 146.687 31.0218C146.12 31.1122 143.173 31.074 142.588 31.0024C142.471 30.353 142.523 28.5553 142.525 27.8119L142.54 21.8708V12.161C142.54 10.5484 142.478 8.25821 142.596 6.68033Z" fill="white"/>
<path d="M0 0.178127C0.817671 0.0367071 3.1166 0.114906 4.05994 0.117193L12.1599 0.123342L29.6798 0.121474C32.5486 0.120519 35.8219 0.0442099 38.6553 0.124849C38.6813 1.65983 38.7121 3.47838 38.6534 5.01163C37.3453 5.38196 35.8011 5.68262 34.4575 6.00128L27.6122 7.67404L7.6624 12.6035C6.6906 12.8454 1.09392 14.1185 0.550587 14.4488C3.24773 14.3161 5.78623 13.6866 8.42802 13.3369C12.9182 12.7425 17.3698 11.8885 21.8527 11.2971C21.3507 14.0789 20.7377 16.6258 20.1589 19.3635C19.1852 24.1056 18.1602 28.8382 17.0842 33.5604C16.936 34.2082 16.4806 36.8864 16.2835 37.2671H0V0.178127Z" fill="#BC0000"/>
<path d="M16.7607 37.2651C16.9454 36.4574 17.5133 35.239 17.822 34.3799C18.7597 31.6866 19.7513 29.0105 20.7964 26.3531C22.6566 21.4901 24.3129 16.5543 26.1779 11.695C26.2635 11.4718 26.5552 10.6847 26.7491 10.563C26.9167 10.4579 37.3501 8.86627 38.6773 8.69336L38.6798 28.3408L38.6807 34.0316C38.68 34.846 38.7174 36.5112 38.6118 37.2651H16.7607Z" fill="#BC0000"/>
</g>
</svg>
