<svg width="39" height="38" viewBox="0 0 39 38" fill="none" xmlns="http://www.w3.org/2000/svg">
<path d="M0 0.178127C0.817671 0.0367071 3.1166 0.114906 4.05994 0.117193L12.1599 0.123342L29.6798 0.121474C32.5486 0.120519 35.8219 0.0442099 38.6553 0.124849C38.6813 1.65983 38.7121 3.47838 38.6534 5.01163C37.3453 5.38196 35.8011 5.68262 34.4575 6.00128L27.6122 7.67404L7.6624 12.6035C6.6906 12.8454 1.09392 14.1185 0.550587 14.4488C3.24773 14.3161 5.78623 13.6866 8.42802 13.3369C12.9182 12.7425 17.3698 11.8885 21.8527 11.2971C21.3507 14.0789 20.7377 16.6258 20.1589 19.3635C19.1852 24.1056 18.1602 28.8382 17.0842 33.5604C16.936 34.2082 16.4806 36.8864 16.2835 37.2671H0V0.178127Z" fill="#BC0000"/>
<path d="M16.7607 37.2651C16.9454 36.4574 17.5133 35.239 17.822 34.3799C18.7597 31.6866 19.7513 29.0105 20.7964 26.3531C22.6566 21.4901 24.3129 16.5543 26.1779 11.695C26.2635 11.4718 26.5552 10.6847 26.7491 10.563C26.9167 10.4579 37.3501 8.86627 38.6773 8.69336L38.6798 28.3408L38.6807 34.0316C38.68 34.846 38.7174 36.5112 38.6118 37.2651H16.7607Z" fill="#BC0000"/>
</svg>
